<?xml version="1.0" encoding="utf-8"?>
<!-- Generator: Adobe Illustrator 27.5.0, SVG Export Plug-In . SVG Version: 6.00 Build 0)  -->
<svg version="1.1" id="Layer_1" xmlns="http://www.w3.org/2000/svg" xmlns:xlink="http://www.w3.org/1999/xlink" x="0px" y="0px"
	 viewBox="0 0 343.62 74.3" style="enable-background:new 0 0 343.62 74.3;" xml:space="preserve">
<style type="text/css">
	.st0{clip-path:url(#SVGID_00000091012178796874052020000013006706467884547466_);}
	.st1{fill:#FFFFFF;}
</style>
<g id="Group_7" transform="translate(29 1)">
	<g>
		<defs>
			<rect id="SVGID_1_" x="-24" y="2.25" width="333.62" height="67.8"/>
		</defs>
		<clipPath id="SVGID_00000144338529288852603960000016260972034799176605_">
			<use xlink:href="#SVGID_1_"  style="overflow:visible;"/>
		</clipPath>
		
			<g id="Group_6" transform="translate(-29 -1)" style="clip-path:url(#SVGID_00000144338529288852603960000016260972034799176605_);">
			<path id="Path_1" class="st1" d="M87.95,10.83h4.46c1.78,0,2.88,0.97,2.88,2.48c0.11,1.1-0.59,2.11-1.65,2.41v0.03
				c1.1,0.21,1.33,1.02,1.42,1.96c-0.06,0.91,0.13,1.81,0.56,2.62h-1.41c-0.36-0.38-0.16-1.41-0.35-2.34
				c-0.13-0.93-0.36-1.71-1.58-1.71H89.2v4.05h-1.26L87.95,10.83z M91.84,15.2c1.18,0,2.19-0.3,2.19-1.69
				c0.07-0.83-0.55-1.56-1.38-1.63c-0.1-0.01-0.21-0.01-0.31,0.01H89.2v3.31L91.84,15.2z"/>
			<path id="Path_2" class="st1" d="M102.19,18.14c-0.22,1.43-1.5,2.44-2.94,2.34c-2.19,0-3.23-1.51-3.29-3.62
				c-0.15-1.82,1.21-3.41,3.03-3.56c0.07-0.01,0.13-0.01,0.2-0.01c2.43,0,3.17,2.27,3.11,3.93h-5.14c-0.13,1.11,0.66,2.12,1.77,2.25
				c0.12,0.01,0.25,0.02,0.37,0.01c0.85,0.08,1.62-0.5,1.78-1.34L102.19,18.14z M101.1,16.23c-0.02-1.08-0.9-1.94-1.98-1.94
				c-1.07,0-1.95,0.87-1.96,1.94H101.1z"/>
			<path id="Path_3" class="st1" d="M109.07,20.32h-1.13v-0.93h-0.03c-0.46,0.75-1.31,1.17-2.19,1.09c-1.78-0.02-3.2-1.47-3.19-3.24
				c0-0.12,0.01-0.25,0.02-0.37c-0.23-1.73,1-3.32,2.73-3.55c0.13-0.02,0.27-0.03,0.4-0.03c0.87-0.03,1.7,0.37,2.22,1.08h0.03v-3.53
				h1.13L109.07,20.32z M105.88,19.48c1.51,0,2.1-1.3,2.1-2.59c0-1.36-0.61-2.6-2.17-2.6c-1.55,0-2.06,1.31-2.06,2.66
				C103.75,18.23,104.42,19.48,105.88,19.48"/>
			<path id="Path_4" class="st1" d="M113.62,10.83h3.25c2.21-0.31,4.25,1.24,4.55,3.44c0.05,0.36,0.05,0.72,0,1.08
				c0,3.17-1.4,4.97-4.56,4.97h-3.25V10.83z M114.88,19.25h2.1c0.86,0,3.19-0.24,3.19-3.73c0-2.26-0.84-3.63-3.16-3.63h-2.13
				L114.88,19.25z"/>
			<path id="Path_5" class="st1" d="M123.45,12.21h-1.13v-1.38h1.13V12.21z M122.32,13.45h1.13v6.87h-1.13V13.45z"/>
			<path id="Path_6" class="st1" d="M125.37,18.15c0.04,1.01,0.92,1.33,1.85,1.33c0.7,0,1.66-0.16,1.66-1.02
				c0-0.86-1.11-1.02-2.24-1.27c-1.13-0.25-2.24-0.62-2.24-1.94c0-1.38,1.37-1.96,2.56-1.96c1.51,0,2.72,0.48,2.82,2.15h-1.13
				c-0.08-0.88-0.85-1.16-1.59-1.16c-0.68,0-1.46,0.19-1.46,0.88c0,0.81,1.19,0.94,2.24,1.19c1.13,0.25,2.24,0.62,2.24,1.96
				c0,1.63-1.53,2.17-2.92,2.17c-1.54,0-2.84-0.63-2.91-2.32H125.37z"/>
			<path id="Path_7" class="st1" d="M132.35,13.45h1.37v0.99h-1.37v4.26c0,0.52,0.15,0.61,0.85,0.61h0.52v1h-0.86
				c-1.17,0-1.63-0.24-1.63-1.51v-4.37h-1.17v-1h1.17v-2.05h1.13L132.35,13.45z"/>
			<path id="Path_8" class="st1" d="M134.4,13.45h1.06v1.45h0.03c0.39-1.04,1.42-1.69,2.52-1.61v1.2c-1.82,0-2.48,1.04-2.48,2.78
				v3.05h-1.13V13.45z"/>
			<path id="Path_9" class="st1" d="M139.52,12.21h-1.13v-1.38h1.13V12.21z M138.4,13.45h1.13v6.87h-1.13V13.45z"/>
			<path id="Path_10" class="st1" d="M142.32,13.45h1.37v0.99h-1.37v4.26c0,0.52,0.15,0.61,0.85,0.61h0.52v1h-0.86
				c-1.17,0-1.63-0.24-1.63-1.51v-4.37h-1.17v-1h1.17v-2.05h1.13V13.45z"/>
			<path id="Path_11" class="st1" d="M150.48,20.29c-0.25,0.14-0.53,0.2-0.81,0.19c-0.58,0-0.96-0.32-0.96-1.06
				c-0.6,0.7-1.49,1.09-2.41,1.06c-1.25,0-2.27-0.56-2.27-1.93c0-1.55,1.16-1.89,2.32-2.11c1.25-0.24,2.31-0.16,2.31-1.01
				c0-0.98-0.81-1.14-1.53-1.14c-0.96,0-1.66,0.29-1.71,1.3h-1.13c0.07-1.7,1.38-2.3,2.91-2.3c1.24,0,2.58,0.28,2.58,1.89v3.53
				c0,0.53,0,0.77,0.36,0.77c0.12,0,0.24-0.02,0.35-0.07L150.48,20.29z M148.65,16.77c-0.65,0.28-1.34,0.44-2.05,0.47
				c-0.74,0.13-1.38,0.4-1.38,1.24c0,0.74,0.64,1.01,1.33,1.01c1.49,0,2.1-0.93,2.1-1.55L148.65,16.77z"/>
			<rect id="Rectangle_12" x="151.07" y="10.83" class="st1" width="1.13" height="9.48"/>
			<path id="Path_12" class="st1" d="M93.9,34.55h-1.13v-0.93h-0.03c-0.46,0.75-1.31,1.17-2.19,1.09c-1.78-0.02-3.2-1.47-3.19-3.24
				c0-0.12,0.01-0.25,0.02-0.37c-0.23-1.73,1-3.32,2.73-3.55c0.13-0.02,0.27-0.03,0.4-0.03c0.87-0.03,1.7,0.37,2.22,1.08h0.03v-3.53
				h1.13L93.9,34.55z M90.71,33.71c1.51,0,2.1-1.3,2.1-2.59c0-1.36-0.61-2.6-2.17-2.6s-2.06,1.31-2.06,2.66
				C88.58,32.46,89.25,33.71,90.71,33.71"/>
			<path id="Path_13" class="st1" d="M100.96,32.37c-0.22,1.42-1.5,2.44-2.94,2.34c-2.19,0-3.23-1.51-3.29-3.62
				c-0.15-1.82,1.21-3.41,3.03-3.56c0.07-0.01,0.13-0.01,0.2-0.01c2.43,0,3.17,2.27,3.11,3.93h-5.14c-0.13,1.11,0.66,2.12,1.77,2.25
				c0.12,0.01,0.25,0.02,0.37,0.01c0.85,0.08,1.62-0.5,1.78-1.34L100.96,32.37z M99.88,30.46c0-1.09-0.88-1.97-1.97-1.97
				c-1.09,0-1.97,0.88-1.97,1.97H99.88z"/>
			<path id="Path_14" class="st1" d="M105.06,25.07h3.44c0.85-0.07,1.71,0.04,2.51,0.35c0.7,0.41,1.13,1.17,1.11,1.98
				c0.03,0.94-0.53,1.79-1.41,2.13v0.03c1.1,0.18,1.88,1.17,1.81,2.28c0.02,1.49-1.17,2.71-2.66,2.73c-0.08,0-0.15,0-0.23-0.01
				h-4.58V25.07z M106.32,29.14h2.52c1.43,0,2.02-0.52,2.02-1.51c0-1.31-0.93-1.51-2.02-1.51h-2.52L106.32,29.14z M106.32,33.49
				h3.16c0.89,0.09,1.69-0.57,1.77-1.46c0.01-0.08,0.01-0.16,0.01-0.24c0-1.24-1-1.58-2.06-1.58h-2.88L106.32,33.49z"/>
			<path id="Path_15" class="st1" d="M114.64,26.45h-1.13v-1.38h1.13V26.45z M113.51,27.68h1.13v6.87h-1.13V27.68z"/>
			<path id="Path_16" class="st1" d="M115.89,25.07h1.13v3.55h0.03c0.46-0.75,1.31-1.17,2.19-1.09c1.78,0.02,3.2,1.47,3.19,3.24
				c0,0.12-0.01,0.25-0.02,0.37c0.22,1.74-1.01,3.33-2.74,3.55c-0.13,0.02-0.26,0.03-0.39,0.03c-0.87,0.03-1.7-0.37-2.22-1.08h-0.03
				v0.92h-1.13L115.89,25.07z M119.08,28.52c-1.51,0-2.1,1.3-2.1,2.59c0,1.36,0.61,2.6,2.17,2.6c1.55,0,2.06-1.32,2.06-2.66
				C121.21,29.77,120.54,28.52,119.08,28.52"/>
			<rect id="Rectangle_13" x="123.27" y="25.07" class="st1" width="1.13" height="9.48"/>
			<path id="Path_17" class="st1" d="M126.81,26.45h-1.13v-1.38h1.13V26.45z M125.68,27.68h1.13v6.87h-1.13V27.68z"/>
			<path id="Path_18" class="st1" d="M131,27.52c1.98-0.15,3.71,1.34,3.86,3.32s-1.34,3.71-3.32,3.86
				c-1.98,0.15-3.71-1.34-3.86-3.32c-0.01-0.09-0.01-0.17-0.01-0.26c-0.19-1.79,1.11-3.39,2.9-3.58
				C130.71,27.52,130.85,27.52,131,27.52 M131,33.71c1.18,0,2.14-0.93,2.14-2.59s-0.96-2.6-2.14-2.6s-2.14,0.93-2.14,2.6
				C128.86,32.79,129.82,33.71,131,33.71"/>
			<path id="Path_19" class="st1" d="M136.69,27.68h1.37v1h-1.37v4.26c0,0.52,0.15,0.61,0.85,0.61h0.52v1h-0.86
				c-1.17,0-1.63-0.24-1.63-1.51v-4.37h-1.17v-0.99h1.17v-2.05h1.13L136.69,27.68z"/>
			<path id="Path_20" class="st1" d="M144.64,32.37c-0.22,1.42-1.5,2.44-2.94,2.34c-2.19,0-3.23-1.51-3.29-3.62
				c-0.15-1.82,1.21-3.41,3.03-3.56c0.07-0.01,0.13-0.01,0.2-0.01c2.43,0,3.17,2.27,3.11,3.93h-5.14c-0.13,1.11,0.66,2.12,1.77,2.25
				c0.12,0.01,0.25,0.02,0.37,0.01c0.85,0.08,1.62-0.5,1.78-1.34L144.64,32.37z M143.55,30.46c0-1.09-0.88-1.97-1.97-1.97
				c-1.09,0-1.97,0.88-1.97,1.97H143.55z"/>
			<path id="Path_21" class="st1" d="M150.05,29.89c-0.12-0.83-0.86-1.43-1.7-1.37c-1.63,0-2.14,1.29-2.14,2.68
				c0,1.26,0.57,2.51,2.01,2.51c0.98,0.06,1.82-0.68,1.89-1.66c0,0,0-0.01,0-0.01h1.16c-0.1,1.57-1.46,2.76-3.03,2.67
				c-1.72,0.06-3.17-1.28-3.24-3.01c-0.01-0.17,0-0.33,0.02-0.5c-0.24-1.77,0.99-3.4,2.76-3.65c0.16-0.02,0.32-0.03,0.48-0.03
				c1.44-0.19,2.76,0.83,2.95,2.27c0,0.03,0.01,0.06,0.01,0.1H150.05z"/>
			<path id="Path_22" class="st1" d="M158.07,34.52c-0.25,0.14-0.53,0.2-0.81,0.19c-0.58,0-0.96-0.32-0.96-1.06
				c-0.6,0.7-1.49,1.09-2.41,1.06c-1.25,0-2.27-0.56-2.27-1.93c0-1.55,1.16-1.89,2.32-2.11c1.25-0.24,2.31-0.16,2.31-1.01
				c0-0.98-0.81-1.14-1.53-1.14c-0.96,0-1.66,0.29-1.71,1.3h-1.13c0.07-1.7,1.38-2.3,2.91-2.3c1.24,0,2.58,0.28,2.58,1.89v3.53
				c0,0.53,0,0.77,0.36,0.77c0.12,0,0.24-0.02,0.35-0.07L158.07,34.52z M156.23,31c-0.65,0.28-1.34,0.44-2.05,0.47
				c-0.74,0.13-1.38,0.4-1.38,1.24c0,0.74,0.64,1.01,1.33,1.01c1.49,0,2.1-0.93,2.1-1.55V31z"/>
			<path id="Path_23" class="st1" d="M159.28,32.38c0.04,1.01,0.92,1.33,1.85,1.33c0.7,0,1.66-0.16,1.66-1.02
				c0-0.86-1.11-1.02-2.24-1.27c-1.13-0.25-2.24-0.62-2.24-1.94c0-1.38,1.37-1.96,2.56-1.96c1.51,0,2.72,0.48,2.82,2.15h-1.13
				c-0.08-0.88-0.85-1.16-1.59-1.16c-0.68,0-1.46,0.19-1.46,0.88c0,0.81,1.19,0.94,2.24,1.19c1.13,0.25,2.24,0.62,2.24,1.96
				c0,1.63-1.53,2.17-2.92,2.17c-1.54,0-2.84-0.63-2.91-2.32H159.28z"/>
			<path id="Path_24" class="st1" d="M87.95,39.3h4.16c1.55-0.05,2.84,1.16,2.89,2.71c0.05,1.55-1.16,2.84-2.71,2.89
				c-0.06,0-0.12,0-0.18,0h-2.9v3.88h-1.26L87.95,39.3z M89.21,43.84h2.47c1.42,0.01,2.07-0.61,2.07-1.74s-0.65-1.74-2.07-1.74H89.2
				L89.21,43.84z"/>
			<path id="Path_25" class="st1" d="M101.52,48.79h-1.06V47.7h-0.03c-0.44,0.81-1.31,1.3-2.23,1.25c-1.81,0-2.36-1.04-2.36-2.51
				v-4.52h1.13v4.65c-0.05,0.71,0.48,1.33,1.2,1.38c0.07,0,0.13,0,0.2,0c1.06,0.06,1.98-0.75,2.04-1.81c0.01-0.11,0-0.23-0.01-0.34
				v-3.88h1.13V48.79z M99.01,39.08h1.45l-1.74,1.9h-0.85L99.01,39.08z"/>
			<path id="Path_26" class="st1" d="M102.73,39.3h1.13v3.55h0.03c0.46-0.75,1.31-1.17,2.19-1.09c1.78,0.02,3.2,1.47,3.19,3.24
				c0,0.12-0.01,0.25-0.02,0.37c0.22,1.74-1.01,3.33-2.74,3.55c-0.13,0.02-0.26,0.03-0.39,0.03c-0.87,0.03-1.7-0.37-2.22-1.08h-0.03
				v0.92h-1.13L102.73,39.3z M105.92,42.75c-1.51,0-2.1,1.3-2.1,2.59c0,1.36,0.61,2.6,2.17,2.6c1.55,0,2.06-1.32,2.06-2.66
				C108.04,44,107.38,42.75,105.92,42.75"/>
			<rect id="Rectangle_14" x="110.1" y="39.3" class="st1" width="1.13" height="9.48"/>
			<path id="Path_27" class="st1" d="M113.65,40.68h-1.13V39.3h1.13V40.68z M112.52,41.91h1.13v6.87h-1.13V41.91z"/>
			<path id="Path_28" class="st1" d="M119.53,44.12c-0.12-0.83-0.86-1.43-1.7-1.37c-1.63,0-2.14,1.29-2.14,2.68
				c0,1.26,0.57,2.51,2.01,2.51c0.98,0.06,1.82-0.68,1.89-1.66c0,0,0-0.01,0-0.01h1.16c-0.1,1.57-1.46,2.76-3.03,2.67
				c-1.72,0.06-3.17-1.28-3.24-3.01c-0.01-0.17,0-0.33,0.02-0.5c-0.24-1.77,0.99-3.4,2.76-3.65c0.16-0.02,0.32-0.03,0.48-0.03
				c1.44-0.19,2.76,0.83,2.95,2.27c0,0.03,0.01,0.06,0.01,0.1L119.53,44.12z"/>
			<path id="Path_29" class="st1" d="M127.56,48.75c-0.25,0.14-0.53,0.2-0.81,0.19c-0.58,0-0.96-0.32-0.96-1.06
				c-0.6,0.7-1.49,1.09-2.41,1.06c-1.25,0-2.27-0.56-2.27-1.93c0-1.55,1.16-1.89,2.32-2.11c1.25-0.24,2.31-0.16,2.31-1.01
				c0-0.98-0.81-1.14-1.53-1.14c-0.96,0-1.66,0.29-1.71,1.3h-1.13c0.07-1.7,1.38-2.3,2.91-2.3c1.24,0,2.58,0.28,2.58,1.89v3.53
				c0,0.53,0,0.77,0.36,0.77c0.12,0,0.24-0.02,0.35-0.07L127.56,48.75z M125.72,45.23c-0.65,0.28-1.34,0.44-2.05,0.47
				c-0.74,0.13-1.38,0.4-1.38,1.24c0,0.74,0.64,1.01,1.33,1.01c1.49,0,2.1-0.93,2.1-1.55V45.23z"/>
			<path id="Path_30" class="st1" d="M128.76,46.61c0.04,1.01,0.92,1.33,1.85,1.33c0.7,0,1.66-0.16,1.66-1.02s-1.11-1.02-2.24-1.27
				s-2.24-0.62-2.24-1.94c0-1.38,1.37-1.96,2.56-1.96c1.51,0,2.72,0.48,2.82,2.15h-1.13c-0.08-0.88-0.85-1.16-1.59-1.16
				c-0.68,0-1.46,0.19-1.46,0.88c0,0.81,1.19,0.94,2.24,1.19c1.13,0.25,2.24,0.62,2.24,1.96c0,1.63-1.53,2.17-2.92,2.17
				c-1.54,0-2.84-0.62-2.91-2.32H128.76z"/>
			<path id="Path_31" class="st1" d="M143.48,48.78h-1.13v-0.93h-0.03c-0.46,0.75-1.31,1.17-2.19,1.09
				c-1.78-0.02-3.2-1.47-3.19-3.24c0-0.12,0.01-0.25,0.02-0.37c-0.23-1.73,1-3.32,2.73-3.55c0.13-0.02,0.27-0.03,0.4-0.03
				c0.87-0.03,1.7,0.37,2.22,1.08h0.03V39.3h1.13L143.48,48.78z M140.3,47.94c1.51,0,2.1-1.3,2.1-2.59c0-1.36-0.61-2.6-2.17-2.6
				c-1.55,0-2.06,1.31-2.06,2.66C138.17,46.69,138.83,47.94,140.3,47.94"/>
			<path id="Path_32" class="st1" d="M150.55,46.6c-0.22,1.43-1.5,2.44-2.94,2.34c-2.19,0-3.23-1.51-3.29-3.62
				c-0.15-1.82,1.21-3.41,3.03-3.56c0.07-0.01,0.13-0.01,0.2-0.01c2.43,0,3.17,2.27,3.11,3.93h-5.14c-0.13,1.11,0.66,2.12,1.77,2.25
				c0.12,0.01,0.25,0.02,0.37,0.01c0.85,0.08,1.62-0.5,1.78-1.34H150.55z M149.46,44.69c0-1.09-0.88-1.97-1.97-1.97
				c-1.09,0-1.97,0.88-1.97,1.97H149.46z"/>
			<path id="Path_33" class="st1" d="M87.95,53.53h3.44c0.85-0.07,1.71,0.04,2.51,0.35c0.7,0.41,1.13,1.17,1.12,1.98
				c0.03,0.94-0.53,1.79-1.41,2.13V58c1.1,0.19,1.88,1.17,1.81,2.28c0.02,1.49-1.17,2.71-2.66,2.73c-0.08,0-0.15,0-0.23-0.01h-4.58
				L87.95,53.53z M89.21,57.61h2.52c1.43,0,2.02-0.52,2.02-1.51c0-1.31-0.93-1.51-2.02-1.51H89.2L89.21,57.61z M89.21,61.95h3.16
				c0.89,0.09,1.69-0.57,1.77-1.46c0.01-0.08,0.01-0.16,0.01-0.24c0-1.24-1-1.58-2.06-1.58H89.2L89.21,61.95z"/>
			<path id="Path_34" class="st1" d="M99.29,55.99c1.98-0.15,3.71,1.34,3.86,3.32s-1.34,3.71-3.32,3.86
				c-1.98,0.15-3.71-1.34-3.86-3.32c-0.01-0.09-0.01-0.17-0.01-0.26c-0.19-1.79,1.11-3.39,2.9-3.58
				C99,55.99,99.15,55.98,99.29,55.99 M99.29,62.18c1.18,0,2.14-0.93,2.14-2.59c0-1.66-0.96-2.6-2.14-2.6s-2.14,0.93-2.14,2.6
				S98.11,62.18,99.29,62.18"/>
			<path id="Path_35" class="st1" d="M109.34,62.43c0,2.23-1.02,3.37-3.19,3.37c-1.29,0-2.78-0.52-2.84-2.02h1.13
				c0.05,0.82,1.04,1.11,1.78,1.11c1.48,0,2.06-1.06,2.06-2.6v-0.45h-0.03c-0.41,0.8-1.24,1.29-2.14,1.25
				c-1.72-0.01-3.1-1.41-3.09-3.12c0-0.12,0.01-0.24,0.02-0.36c-0.21-1.78,1.06-3.39,2.83-3.6c0.11-0.01,0.23-0.02,0.34-0.02
				c0.84-0.03,1.63,0.41,2.05,1.14h0.01v-0.98h1.06L109.34,62.43z M108.23,59.44c0-1.21-0.53-2.46-1.96-2.46
				c-1.45,0-2.03,1.18-2.03,2.5c0,1.24,0.45,2.62,1.94,2.62S108.22,60.72,108.23,59.44"/>
			<path id="Path_36" class="st1" d="M113.48,55.99c1.98-0.15,3.71,1.34,3.86,3.32c0.15,1.98-1.34,3.71-3.32,3.86
				c-1.98,0.15-3.71-1.34-3.86-3.32c-0.01-0.09-0.01-0.17-0.01-0.26c-0.19-1.79,1.11-3.39,2.9-3.58
				C113.19,55.99,113.33,55.98,113.48,55.99 M113.48,62.18c1.18,0,2.14-0.93,2.14-2.59c0-1.66-0.96-2.6-2.14-2.6
				s-2.14,0.93-2.14,2.6S112.29,62.18,113.48,62.18"/>
			<path id="Path_37" class="st1" d="M119.18,56.14h1.37v1h-1.37v4.26c0,0.52,0.15,0.61,0.85,0.61h0.52v1h-0.86
				c-1.17,0-1.63-0.24-1.63-1.51v-4.37h-1.17v-1h1.17v-2.06h1.13L119.18,56.14z"/>
			<path id="Path_38" class="st1" d="M127.34,62.99c-0.25,0.14-0.53,0.2-0.81,0.19c-0.58,0-0.96-0.32-0.96-1.06
				c-0.6,0.7-1.49,1.09-2.41,1.06c-1.25,0-2.27-0.56-2.27-1.93c0-1.55,1.16-1.89,2.32-2.11c1.25-0.24,2.31-0.16,2.31-1.01
				c0-0.98-0.81-1.14-1.53-1.14c-0.96,0-1.66,0.29-1.71,1.3h-1.13c0.07-1.7,1.38-2.3,2.91-2.3c1.24,0,2.58,0.28,2.58,1.89v3.53
				c0,0.53,0,0.77,0.36,0.77c0.12,0,0.24-0.02,0.35-0.07L127.34,62.99z M125.51,59.47c-0.65,0.28-1.34,0.44-2.05,0.47
				c-0.74,0.13-1.38,0.4-1.38,1.24c0,0.74,0.64,1.01,1.33,1.01c1.49,0,2.1-0.93,2.1-1.55L125.51,59.47z M124.32,53.3h1.45l-1.74,1.9
				h-0.85L124.32,53.3z"/>
			<path id="Path_39" class="st1" d="M6.27,55.38c0-1.92,0-2.27-0.03-2.67c-0.03-0.43-0.13-0.63-0.54-0.72
				c-0.16-0.03-0.33-0.04-0.49-0.04C5.08,51.95,5,51.92,5,51.84c0-0.09,0.09-0.11,0.28-0.11c0.67,0,1.46,0.04,1.72,0.04
				c0.62,0,1.11-0.04,1.54-0.04c2.28,0,2.69,1.22,2.69,1.89c-0.04,0.9-0.52,1.73-1.29,2.21c1.27,0.33,2.19,1.42,2.3,2.73
				c0,1.36-1.05,2.75-3.37,2.75c-0.15,0-0.52-0.03-0.88-0.04s-0.75-0.04-0.95-0.04c-0.14,0-0.42,0-0.72,0.01s-0.62,0.03-0.87,0.03
				c-0.16,0-0.25-0.04-0.25-0.13c0-0.06,0.05-0.1,0.2-0.1c0.15,0,0.3-0.02,0.45-0.05c0.25-0.05,0.31-0.33,0.37-0.69
				c0.06-0.53,0.06-1.53,0.06-2.69L6.27,55.38z M7.78,55.59c0,0.1,0.04,0.13,0.09,0.14c0.2,0.03,0.4,0.04,0.59,0.04
				c0.32,0.04,0.64-0.05,0.9-0.24c0.37-0.34,0.56-0.84,0.52-1.34c0-0.85-0.49-1.96-1.58-1.96c-0.14-0.01-0.28,0-0.42,0.03
				c-0.09,0.02-0.11,0.08-0.11,0.21L7.78,55.59z M9.44,56.6c-0.31-0.21-0.68-0.31-1.05-0.3c-0.23-0.01-0.35-0.01-0.54-0.01
				c-0.05,0-0.08,0.02-0.08,0.09v2.99c0,0.83,0.04,1.05,0.44,1.21c0.29,0.11,0.61,0.16,0.92,0.15c0.81,0.04,1.5-0.59,1.53-1.4
				c0-0.07,0-0.14-0.01-0.21C10.68,58.12,10.23,57.19,9.44,56.6"/>
			<path id="Path_40" class="st1" d="M13.94,56.25c0-1.63,0-1.93-0.01-2.27c-0.03-0.37-0.14-0.49-0.38-0.57
				c-0.13-0.04-0.27-0.05-0.4-0.05c-0.11,0-0.18-0.03-0.18-0.13c0-0.06,0.09-0.09,0.27-0.09c0.42,0,1.17,0.03,1.49,0.03
				c0.28,0,1-0.03,1.43-0.03c0.14,0,0.23,0.03,0.23,0.09c0,0.1-0.06,0.13-0.18,0.13c-0.11,0-0.22,0.01-0.33,0.04
				c-0.3,0.05-0.39,0.2-0.42,0.58c-0.03,0.34-0.03,0.64-0.03,2.27v1.89c0,1.04,0,1.89,0.05,2.35c0.04,0.29,0.11,0.45,0.44,0.5
				c0.19,0.03,0.38,0.04,0.57,0.04c0.13,0,0.18,0.06,0.18,0.11c0,0.08-0.09,0.11-0.21,0.11c-0.73,0-1.49-0.04-1.79-0.04
				c-0.25,0-1.01,0.04-1.45,0.04c-0.14,0-0.21-0.04-0.21-0.11c0-0.05,0.04-0.11,0.18-0.11c0.13,0,0.26-0.01,0.39-0.04
				c0.23-0.05,0.29-0.2,0.33-0.52c0.05-0.44,0.05-1.3,0.05-2.33L13.94,56.25z"/>
			<path id="Path_41" class="st1" d="M18.31,56.25c0-1.63,0-1.93-0.01-2.27c-0.03-0.37-0.13-0.48-0.48-0.58
				c-0.15-0.03-0.29-0.04-0.44-0.04c-0.11,0-0.19-0.04-0.19-0.11s0.09-0.1,0.25-0.1c0.58,0,1.29,0.03,1.51,0.03
				c0.55,0,1.29-0.03,1.66-0.03c2.01,0,2.36,1.04,2.36,1.6c-0.07,0.8-0.54,1.5-1.25,1.88c1.11,0.26,1.93,1.19,2.04,2.32
				c0,1.15-0.9,2.33-2.95,2.33c-0.13,0-0.5-0.01-0.88-0.04s-0.77-0.03-0.95-0.03c-0.13,0-0.36,0.01-0.63,0.01
				c-0.27,0-0.54,0.03-0.77,0.03c-0.14,0-0.21-0.04-0.21-0.11c0-0.05,0.04-0.11,0.18-0.11c0.13,0,0.26-0.01,0.39-0.04
				c0.23-0.05,0.29-0.25,0.33-0.57c0.05-0.45,0.05-1.3,0.05-2.28L18.31,56.25z M19.74,56.43c0,0.09,0.04,0.1,0.08,0.11
				c0.17,0.03,0.34,0.04,0.52,0.04c0.3,0.03,0.61-0.04,0.87-0.19c0.34-0.28,0.52-0.7,0.5-1.13c0.07-0.82-0.53-1.54-1.35-1.61
				c-0.01,0-0.02,0-0.04,0c-0.16-0.01-0.32,0-0.48,0.02c-0.08,0.01-0.1,0.06-0.1,0.18L19.74,56.43z M19.74,59.58
				c0,0.71,0.04,0.92,0.39,1.05c0.25,0.09,0.52,0.14,0.79,0.13c0.73,0.02,1.35-0.55,1.37-1.29c0-0.07,0-0.15-0.01-0.22
				c-0.02-0.77-0.41-1.48-1.05-1.9c-0.28-0.19-0.62-0.29-0.96-0.28H19.8c-0.04,0-0.06,0.01-0.06,0.08L19.74,59.58z"/>
			<path id="Path_42" class="st1" d="M26.61,58.14c0,1.38,0,2.06,0.24,2.26c0.19,0.16,0.62,0.23,1.48,0.23c0.59,0,1.02-0.01,1.3-0.3
				c0.15-0.18,0.25-0.41,0.28-0.64c0.01-0.1,0.04-0.16,0.13-0.16c0.09,0,0.1,0.11,0.1,0.24c-0.02,0.42-0.08,0.83-0.16,1.24
				c-0.08,0.24-0.13,0.29-0.71,0.29c-0.79,0-1.44-0.01-1.99-0.04c-0.56-0.03-1.02-0.03-1.48-0.03c-0.13,0-0.37,0.01-0.63,0.01
				s-0.54,0.03-0.77,0.03c-0.14,0-0.22-0.04-0.22-0.11c0-0.05,0.04-0.11,0.18-0.11c0.13,0,0.26-0.01,0.39-0.04
				c0.23-0.05,0.29-0.25,0.33-0.57c0.05-0.45,0.05-1.3,0.05-2.28v-1.89c0-1.63,0-1.93-0.01-2.27c-0.03-0.37-0.13-0.48-0.48-0.58
				c-0.12-0.03-0.24-0.04-0.36-0.04c-0.13,0-0.19-0.04-0.19-0.11s0.08-0.1,0.24-0.1c0.52,0,1.22,0.03,1.53,0.03
				c0.27,0,1.17-0.03,1.6-0.03c0.16,0,0.24,0.03,0.24,0.1s-0.06,0.11-0.2,0.11c-0.14,0-0.29,0.01-0.43,0.04
				c-0.3,0.05-0.39,0.2-0.42,0.58c-0.03,0.34-0.03,0.64-0.03,2.27L26.61,58.14z"/>
			<path id="Path_43" class="st1" d="M29.86,57.2c0.01-2.34,1.93-4.23,4.27-4.22c0.13,0,0.26,0.01,0.38,0.02
				c2.8,0,4.54,1.55,4.54,4.01c0.04,2.39-1.87,4.36-4.27,4.4c-0.13,0-0.26,0-0.39-0.01c-2.3,0.2-4.33-1.51-4.52-3.81
				C29.87,57.46,29.86,57.33,29.86,57.2 M37.4,57.4c0.24-1.87-1.08-3.57-2.95-3.81c-0.09-0.01-0.18-0.02-0.27-0.02
				c-1.24,0-2.69,0.66-2.69,3.3c-0.24,1.93,1.14,3.69,3.07,3.92c0.1,0.01,0.19,0.02,0.29,0.02C35.64,60.82,37.41,60.45,37.4,57.4"/>
			<path id="Path_44" class="st1" d="M40.03,55.38c0-1.92,0-2.27-0.03-2.67c-0.03-0.43-0.13-0.63-0.54-0.72
				c-0.16-0.03-0.33-0.04-0.49-0.04c-0.14,0-0.21-0.03-0.21-0.11s0.09-0.11,0.28-0.11c0.67,0,1.46,0.04,1.73,0.04
				c0.43,0,1.39-0.04,1.78-0.04c0.81-0.06,1.62,0.13,2.32,0.54c0.54,0.41,0.86,1.05,0.86,1.73c-0.06,1.16-0.68,2.21-1.66,2.83
				c1.12,1.41,1.99,2.53,2.74,3.31c0.36,0.44,0.86,0.74,1.41,0.86c0.12,0.02,0.23,0.03,0.35,0.04c0.1,0,0.15,0.04,0.15,0.1
				c0,0.1-0.09,0.13-0.24,0.13h-1.2c-0.47,0.04-0.93-0.04-1.36-0.24c-0.7-0.49-1.29-1.12-1.73-1.85c-0.5-0.69-1.08-1.55-1.25-1.74
				c-0.06-0.06-0.14-0.1-0.23-0.09l-1.1-0.03c-0.06,0-0.1,0.03-0.1,0.1v0.18c0,1.17,0,2.17,0.06,2.7c0.04,0.36,0.11,0.64,0.49,0.69
				c0.2,0.03,0.41,0.04,0.62,0.05c0.1,0,0.15,0.04,0.15,0.1c0,0.09-0.09,0.13-0.25,0.13c-0.73,0-1.66-0.04-1.85-0.04
				c-0.24,0-1.03,0.04-1.54,0.04c-0.16,0-0.25-0.04-0.25-0.13c0-0.06,0.05-0.1,0.2-0.1c0.15,0,0.3-0.02,0.45-0.05
				c0.25-0.05,0.32-0.33,0.37-0.69c0.06-0.53,0.06-1.53,0.06-2.69L40.03,55.38z M41.52,56.38c0,0.14,0.03,0.19,0.11,0.23
				c0.31,0.09,0.63,0.13,0.96,0.13c0.31,0.04,0.63-0.03,0.89-0.22c0.54-0.47,0.82-1.18,0.74-1.89c0.16-1.1-0.6-2.13-1.7-2.29
				c-0.07-0.01-0.15-0.02-0.23-0.02c-0.22-0.01-0.45,0.01-0.67,0.05c-0.09,0.03-0.11,0.08-0.11,0.18L41.52,56.38z"/>
			<path id="Path_45" class="st1" d="M48.87,56.25c0-1.63,0-1.93-0.01-2.27c-0.03-0.37-0.13-0.48-0.48-0.58
				c-0.15-0.03-0.29-0.04-0.44-0.04c-0.11,0-0.19-0.04-0.19-0.11s0.09-0.1,0.25-0.1c0.58,0,1.29,0.03,1.6,0.03
				c0.35,0,2.81,0.01,3.03,0c0.16-0.01,0.31-0.03,0.47-0.06c0.06-0.02,0.12-0.04,0.18-0.05c0.06,0,0.08,0.05,0.08,0.1
				c-0.05,0.23-0.08,0.46-0.09,0.69c-0.01,0.11-0.04,0.58-0.06,0.71c-0.01,0.05-0.04,0.18-0.13,0.18s-0.09-0.05-0.09-0.14
				c0-0.13-0.02-0.27-0.08-0.39c-0.09-0.19-0.18-0.34-0.73-0.39c-0.19-0.03-1.51-0.05-1.74-0.05c-0.05,0-0.08,0.04-0.08,0.1v2.65
				c0,0.06,0.01,0.11,0.08,0.11c0.25,0,1.69,0,1.94-0.02c0.19,0,0.37-0.05,0.53-0.16c0.09-0.08,0.13-0.14,0.18-0.14
				s0.09,0.05,0.09,0.11c0,0.06-0.02,0.24-0.09,0.78c-0.03,0.22-0.05,0.64-0.05,0.72c0,0.08-0.01,0.24-0.11,0.24
				c-0.08,0-0.1-0.04-0.1-0.09c-0.01-0.11-0.01-0.25-0.04-0.39c-0.06-0.21-0.2-0.38-0.62-0.42c-0.2-0.03-1.46-0.05-1.74-0.05
				c-0.05,0-0.06,0.05-0.06,0.11v0.86c0,0.37-0.01,1.27,0,1.59c0.03,0.73,0.36,0.89,1.51,0.89c0.35,0.02,0.71-0.03,1.05-0.14
				c0.28-0.13,0.4-0.35,0.48-0.79c0.03-0.11,0.05-0.16,0.13-0.16c0.08,0,0.1,0.14,0.1,0.25c-0.02,0.4-0.07,0.8-0.15,1.19
				c-0.08,0.28-0.18,0.28-0.59,0.28c-0.83,0-1.51-0.01-2.04-0.04c-0.54-0.03-0.96-0.03-1.29-0.03c-0.13,0-0.37,0.01-0.63,0.01
				s-0.54,0.03-0.77,0.03c-0.14,0-0.21-0.04-0.21-0.11c0-0.05,0.04-0.11,0.18-0.11c0.13,0,0.26-0.01,0.39-0.04
				c0.23-0.05,0.29-0.25,0.33-0.57c0.05-0.45,0.05-1.3,0.05-2.28L48.87,56.25z"/>
			<path id="Path_46" class="st1" d="M54.8,56.25c0-1.63,0-1.93-0.01-2.27c-0.02-0.37-0.13-0.48-0.48-0.58
				c-0.15-0.03-0.29-0.04-0.44-0.04c-0.11,0-0.19-0.04-0.19-0.11s0.09-0.1,0.25-0.1c0.58,0,1.29,0.03,1.6,0.03
				c0.34,0,1.13-0.03,1.81-0.03c1.59-0.2,3.2,0.24,4.46,1.22c0.7,0.73,1.09,1.71,1.05,2.72c0.02,1.12-0.42,2.2-1.21,2.99
				c-1.03,0.89-2.36,1.35-3.72,1.26c-0.4,0-0.88-0.04-1.32-0.06c-0.44-0.03-0.85-0.06-1.12-0.06c-0.13,0-0.37,0.01-0.63,0.01
				s-0.54,0.03-0.77,0.03c-0.14,0-0.21-0.04-0.21-0.11c0-0.05,0.04-0.11,0.18-0.11c0.13,0,0.26-0.01,0.39-0.04
				c0.23-0.05,0.29-0.25,0.33-0.57c0.05-0.45,0.05-1.3,0.05-2.28L54.8,56.25z M56.29,57.44c0,1.14,0.01,1.96,0.02,2.17
				c-0.01,0.26,0.04,0.51,0.13,0.75c0.14,0.2,0.58,0.43,1.45,0.43c0.87,0.07,1.73-0.19,2.42-0.73c0.7-0.7,1.05-1.68,0.95-2.66
				c0.05-1-0.32-1.97-1.03-2.67c-0.87-0.72-1.98-1.08-3.1-1.02c-0.23-0.01-0.46,0.02-0.68,0.08c-0.09,0.02-0.16,0.12-0.14,0.21
				c-0.01,0.37-0.01,1.25-0.01,2.09L56.29,57.44z"/>
			<path id="Path_47" class="st1" d="M40.12,32.15h0.02h0.1l0.03,0.15h0.6l0.05-0.13v-0.03c0.02-0.07,0.03-0.15,0.03-0.22
				c0-0.29-0.12-0.57-0.33-0.78c-0.26-0.27-0.63-0.42-1.01-0.4c-0.07,0-0.15,0.01-0.22,0.02l-0.13,0.02l-0.03,0.13
				c-0.01,0.07-0.02,0.13-0.02,0.2c0,0.29,0.12,0.57,0.33,0.78C39.69,32.05,39.9,32.14,40.12,32.15"/>
			<path id="Path_48" class="st1" d="M36.93,34.34l0.26,0.25l0.04,0.04c-0.04,0.25-0.06,0.51-0.06,0.76v0.08
				c0.08,1.13,0.33,2.25,0.72,3.31c0.31,0.83,0.51,1.69,0.58,2.57c0.02,0.31-0.07,0.61-0.24,0.87l-0.39,0.53l0.62-0.22l0.23-0.08
				c0.04-0.02,0.08-0.03,0.11-0.05l0.04-0.02l0.03-0.01h0.01l0.06-0.02v-0.01l0,0l0.02-0.02l0,0c0.02-0.01,0.03-0.03,0.04-0.05
				c0.27-0.44,0.41-0.94,0.41-1.45c-0.11-1.12-0.45-2.21-1.01-3.19c-0.35-0.71-0.53-1.5-0.54-2.29c0-0.1,0-0.18,0.01-0.25
				c0.19,0.12,0.38,0.23,0.58,0.33c0.64,0.32,0.66,1.37,0.66,1.58c0,0.07,0,0.14-0.01,0.21l-0.01,0.17l0.69,0.15l0.04-0.2
				c0.04-0.2,0.06-0.4,0.05-0.6c0-0.21-0.01-0.42-0.05-0.62c-0.1-0.46-0.28-0.91-0.54-1.3l-0.06-0.09h-0.1
				c-0.26-0.03-0.52-0.12-0.74-0.26c-0.77-0.6-1.23-1.51-1.24-2.49c0.02-0.68,0.23-1.33,0.62-1.89c0.18-0.27,0.38-0.53,0.62-0.75
				l0.22-0.2l-0.74-0.37l-0.1,0.09l-0.01,0.01c-0.92,0.87-1.5,2.04-1.61,3.31c0,0.05,0,0.1,0,0.15
				C36.1,33.07,36.39,33.81,36.93,34.34"/>
			<path id="Path_49" class="st1" d="M54.86,15.45c-0.22,0-0.43,0.07-0.61,0.19l0,0l-0.07,0.05c-0.88,0.69-2.01,1.57-3.25,2.54
				c0.1-0.27,0.23-0.6,0.36-0.94l0.41-1.07l0,0l0.02-0.05c0.22-0.56-0.06-1.19-0.62-1.4c-0.31-0.12-0.67-0.09-0.96,0.08v-0.01
				l-0.04,0.03c-0.66,0.41-1.32,0.84-1.97,1.3l0.68-2.46l0.01-0.06l0,0c0.02-0.07,0.02-0.15,0.02-0.22c0-0.6-0.48-1.08-1.08-1.08
				c-0.22,0-0.43,0.06-0.6,0.19l-0.04,0.03c-0.68,0.42-1.34,0.89-1.99,1.39l0.34-2.4V11.5l0,0c0-0.03,0-0.06,0-0.09
				c0-0.6-0.49-1.08-1.08-1.08c-0.18,0-0.37,0.05-0.53,0.14l0,0l-0.05,0.03c-2.57,1.6-4.66,3.85-6.08,6.52
				c-1.52,2.93-2.53,6.11-2.97,9.38c-0.29,0.11-0.56,0.22-0.82,0.35c-0.72-3.53-2-6.93-3.8-10.05c-1.59-2.59-3.81-4.74-6.44-6.25
				l-0.03-0.01c-0.15-0.07-0.32-0.11-0.49-0.11c-0.6,0-1.08,0.48-1.08,1.08c0,0.07,0.01,0.13,0.02,0.2l0.44,2.28
				c-0.58-0.42-1.18-0.81-1.77-1.16l-0.04-0.02c-0.16-0.09-0.34-0.13-0.53-0.13c-0.6,0.01-1.08,0.5-1.08,1.1
				c0,0.07,0.01,0.14,0.02,0.21l0.6,2.49c-0.59-0.39-1.18-0.76-1.76-1.11c-0.16-0.09-0.34-0.13-0.52-0.13
				c-0.6,0-1.08,0.48-1.09,1.08c0,0.11,0.02,0.22,0.05,0.32c0.23,0.78,0.55,1.86,0.69,2.35c-3.18-2.69-3.48-2.95-3.5-2.97
				c-0.47-0.38-1.15-0.3-1.52,0.16c-0.16,0.19-0.24,0.43-0.24,0.68c0,0.08,0.01,0.16,0.03,0.24l0.06,0.27
				c0.06,0.28,0.15,0.64,0.3,1.27c1.68,7.09,4.96,20.72,4.99,20.86c0.06,0.26,0.22,0.49,0.43,0.65l15.72,10.18
				c0.35,0.23,0.81,0.22,1.16-0.02l15.86-10.13c0.23-0.15,0.4-0.38,0.47-0.64l0,0l0.49-2.19c0.53-2.39,1.38-6.19,2.23-10.01
				l0.04-0.19c0.84-3.82,1.71-7.77,2.23-10.17c0.03-0.1,0.04-0.2,0.04-0.3C55.93,15.93,55.45,15.45,54.86,15.45 M34.42,37.1v-0.06
				c0.03-1.05,0.08-1.77,0.12-2.08c0.07-0.52,0.21-1.03,0.41-1.52L35,33.29l-0.66-0.45l-0.1,0.21c-0.13,0.27-0.27,0.59-0.41,0.94
				c-0.24,1-0.36,2.02-0.37,3.05v0.11l0.02,0.01c0.01,0.33,0.02,1.78,0.02,3.66c0,2.76-0.01,6.45-0.02,8.29L18.47,38.94L13.69,17.9
				l15.94,12.6c-0.64,0.97-1.16,2.01-1.54,3.11l-0.05,0.14l0.64,0.45l0.09-0.25c0.37-1.04,0.89-2.03,1.54-2.92l1.04,0.83l0.12-0.18
				c0.06-0.09,0.13-0.18,0.2-0.27l0.15-0.21l-0.2-0.15c-0.08-0.05-0.35-0.27-0.74-0.6l-0.07-0.06c0.13-0.15,0.26-0.31,0.41-0.47
				c0.34,0.51,0.58,0.87,0.63,0.95c0.01,0.02,0.02,0.03,0.04,0.05l0.05-0.04l-0.03,0.05c0.03,0.03,0.05,0.04,0.14,0.05
				c0.02,0,0.04-0.01,0.06-0.01l0.15-0.15l0.24-0.31l0.06-0.1l-0.06-0.1l0,0c-0.08-0.15-0.51-0.85-0.63-1.03
				c0.12-0.11,0.24-0.22,0.35-0.32c0.21,0.48,0.35,0.82,0.41,0.96c0.02,0.04,0.03,0.06,0.03,0.08l0.11,0.28l0.66-0.65l-0.05-0.14
				l0,0c0-0.01-0.01-0.03-0.02-0.05c-0.05-0.15-0.19-0.53-0.42-1.07l0.34-0.24c0.16,0.69,0.23,1.08,0.23,1.08l0.06,0.34l0.77-0.64
				l-0.01-0.1c0,0-0.06-0.45-0.2-1.18c0.18-0.09,0.35-0.17,0.51-0.25c-0.08,0.71-0.09,1.12-0.09,1.12l-0.01,0.33l0.3-0.16
				c0.08-0.03,0.14-0.07,0.2-0.1c0.09-0.05,0.18-0.1,0.28-0.14l0.1-0.05l0.02-0.11c0,0,0.04-0.47,0.18-1.27
				c0.21-0.06,0.39-0.11,0.56-0.16c-0.22,0.63-0.33,1.02-0.33,1.02l-0.09,0.32l0.96-0.21l0.03-0.11c0-0.01,0.01-0.02,0.01-0.03
				c0.15-0.45,0.34-0.9,0.47-1.21c0.18-0.03,0.34-0.05,0.5-0.07c-0.19,0.28-0.36,0.58-0.49,0.89L37,27.9l0.36-0.1
				c0.07,0,0.12-0.02,0.17-0.02c0.11-0.02,0.21-0.02,0.32-0.02l0.13,0.01l0.05-0.08c0.02-0.04,0.33-0.47,0.9-1.21h0.12
				c0.33,0,0.62,0,0.9,0.02l-0.17,0.39c-0.23,0.17-0.41,0.31-0.54,0.4l-0.15,0.11l-0.4,0.36h0.32c0.03,0.02,0.07,0.04,0.1,0.04
				l0.11,0.02c0.15,0.02,0.27,0.04,0.42,0.06l0.08,0.02l1.71-1.19c0.08-0.02,0.16-0.03,0.24-0.04c-0.21,0.18-0.39,0.38-0.53,0.62
				c-0.17,0.25-0.27,0.54-0.3,0.84c0,0.05,0.02,0.1,0.06,0.14l0.02,0.02l0.04,0.02c0.15,0.07,0.27,0.13,0.36,0.18l0.16,0.09
				l0.05-0.08c0,0.09,0,0.19,0,0.32c0.01,0.85,0.1,1.7,0.28,2.53c0.17,0.8,0.26,1.61,0.27,2.43c0.01,0.74-0.11,1.47-0.35,2.17
				l-0.41-0.05c-0.02,0-0.03,0-0.05,0c-0.4,0.04-0.76,0.28-0.94,0.64c-0.22,0.32-0.36,0.68-0.42,1.06l-0.01,0.13l0.12,0.07
				c0.14,0.07,0.3,0.1,0.46,0.1c0.57-0.04,1.1-0.31,1.47-0.75c0.75-0.98,1.09-2.21,0.97-3.44c0-0.66-0.05-1.31-0.15-1.96
				c-0.22-1.17-0.36-2.35-0.41-3.54c0-0.22,0.01-0.44,0.05-0.65c0.05-0.33,0.16-0.65,0.33-0.94c0.06-0.1,0.13-0.2,0.21-0.28L43,26.3
				l0.26-0.25l-0.36-0.09c0,0-0.11-0.03-0.3-0.07l11.46-7.99L49.8,38.93l-15.4,10.21c0-1.87,0.01-6.5,0.01-9.46v-2.45
				C34.42,37.18,34.42,37.13,34.42,37.1 M32.56,27.5c-1.38-3.36-3.2-6.51-5.42-9.38c-1.01-1.22-2.14-2.33-3.37-3.33l-0.52-3.03
				c2.17,1.28,4.03,3.02,5.44,5.11c1.61,2.52,2.86,5.24,3.72,8.11c0.23,0.74,0.44,1.48,0.63,2.22c-0.14,0.08-0.29,0.18-0.48,0.3
				 M31.81,28.06c-0.15,0.13-0.3,0.26-0.46,0.41c-2.01-3.2-4.41-6.13-7.14-8.74c-0.99-0.86-2.02-1.68-3.06-2.43l-0.81-3.19
				c2.03,1.17,3.87,2.65,5.46,4.37c1.94,2.24,3.59,4.71,4.9,7.37c0.38,0.74,0.75,1.49,1.09,2.22 M29.04,26.93
				c0.56,0.74,1.13,1.51,1.63,2.22c-0.18,0.19-0.36,0.41-0.56,0.67c-0.5-0.42-1.1-0.92-1.77-1.49c-2.65-2.22-6.45-5.45-9.51-8.05
				l-1.12-3.62c1.86,1.09,3.63,2.32,5.31,3.68C25.26,22.32,27.28,24.52,29.04,26.93 M41.68,36.1c-0.1,0.24-0.25,0.46-0.44,0.65
				c0-0.05,0.01-0.11,0.02-0.16c0.02-0.11,0.06-0.21,0.12-0.29c0.01-0.02,0.02-0.03,0.04-0.04l0.27-0.15
				C41.69,36.1,41.69,36.1,41.68,36.1 M49.1,19.65c-0.5,0.39-1,0.78-1.51,1.18c-1.95,1.52-4.09,3.18-5.86,4.55l-0.41,0.32
				c-0.57-0.06-1.14-0.09-1.69-0.1c0.07-0.08,0.14-0.17,0.21-0.26c1.52-1.82,3.19-3.5,5-5.04c1.65-1.38,3.39-2.64,5.23-3.76
				L49.1,19.65z M46.63,17.26c-1.05,0.79-2.06,1.62-2.98,2.45c-1.96,1.79-3.74,3.78-5.29,5.93c-0.26,0.02-0.51,0.04-0.75,0.07
				c0.13-0.28,0.25-0.55,0.39-0.82c1.11-2.27,2.5-4.4,4.13-6.33c1.53-1.79,3.33-3.33,5.33-4.57L46.63,17.26z M43.96,14.91
				c-1.16,1.01-2.22,2.13-3.16,3.35c-1.77,2.33-3.21,4.9-4.28,7.62c-0.28,0.06-0.51,0.11-0.73,0.17c0.08-0.39,0.18-0.84,0.3-1.34
				c0.66-2.66,1.7-5.22,3.09-7.58c1.3-2.15,3.06-3.99,5.15-5.38L43.96,14.91z"/>
			<rect id="Rectangle_15" x="75.38" y="3.25" class="st1" width="0.52" height="67.8"/>
			<rect id="Rectangle_16" x="177.43" y="3.25" class="st1" width="0.52" height="67.8"/>
			<path id="Path_50" class="st1" d="M191.97,10.87h10.66c5.61,0,6.64,4.14,6.64,5.96c0.13,2.21-1.19,4.25-3.26,5.02
				c1.73,0.76,2.67,1.41,2.67,5.35c0,3.08,0,3.85,0.94,4.2v0.56h-4.88c-0.37-1.39-0.53-2.82-0.47-4.26c0-2.88-0.18-4-3.44-4h-4.55
				v8.26h-4.32V10.87z M201.47,20.16c2.29,0,3.41-0.79,3.41-2.88c0-1.12-0.5-2.76-3.08-2.76h-5.49v5.64H201.47z"/>
			<path id="Path_51" class="st1" d="M224.52,27.38c-0.83,3.08-3.69,5.16-6.88,4.99c-4.41,0-7.79-2.11-7.79-8.55
				c0-1.88,0.65-7.9,7.49-7.9c3.08,0,7.34,1.47,7.34,8.61v0.74h-10.72c0.12,1.18,0.35,3.82,3.67,3.82c1.16,0.08,2.24-0.62,2.65-1.71
				H224.52z M220.47,22.59c0.07-1.75-1.29-3.22-3.03-3.29c-0.05,0-0.09,0-0.14,0c-1.94,0-2.97,1.23-3.2,3.29H220.47z"/>
			<path id="Path_52" class="st1" d="M230.11,18.6h0.06c0.9-1.73,2.72-2.77,4.67-2.67c3.44,0,6.49,2.64,6.49,8.05
				c0,4.29-1.94,8.4-6.58,8.4c-1.82,0.15-3.55-0.8-4.41-2.41h-0.06v8.08h-4.11V16.34h3.94L230.11,18.6z M233.72,28.99
				c2.64,0,3.38-2.88,3.38-4.73c0-2.47-0.88-4.79-3.5-4.79c-2.82,0-3.5,2.53-3.5,5.02C230.11,26.82,231.11,28.99,233.72,28.99"/>
			<path id="Path_53" class="st1" d="M250.11,32.38c-4.2,0-7.99-2.59-7.99-8.23s3.79-8.23,7.99-8.23s7.99,2.59,7.99,8.23
				S254.31,32.38,250.11,32.38 M250.11,19.39c-3.17,0-3.77,2.76-3.77,4.76s0.59,4.76,3.77,4.76s3.77-2.76,3.77-4.76
				S253.29,19.39,250.11,19.39"/>
			<path id="Path_54" class="st1" d="M268.65,21.1c-0.18-1-0.53-2.06-2.76-2.06c-2.23,0-2.53,0.85-2.53,1.53
				c0,2.47,9.78,0.68,9.78,6.43c0,4.55-4.41,5.38-6.84,5.38c-3.55,0-7.4-1.23-7.52-5.41h4.23c0,1.32,0.82,2.29,3.41,2.29
				c2.11,0,2.61-1.03,2.61-1.62c0-2.61-9.69-0.65-9.69-6.49c0-2.29,1.44-5.23,6.32-5.23c3.06,0,6.7,0.76,7.02,5.17H268.65z"/>
			<path id="Path_55" class="st1" d="M279.2,14.49h-4.11v-3.82h4.11V14.49z M279.2,31.96h-4.11V16.34h4.11V31.96z"/>
			<path id="Path_56" class="st1" d="M286.57,16.34h2.56v2.94h-2.56v8.49c0,0.9,0.03,1.26,1.7,1.26c0.26,0,0.56-0.03,0.85-0.06v3.11
				c-0.65,0.03-1.29,0.06-1.94,0.06h-0.53c-3.55,0-4.2-1.36-4.2-3.38v-9.49h-2.11v-2.94h2.11v-4.23h4.11L286.57,16.34z"/>
			<path id="Path_57" class="st1" d="M297.06,32.38c-4.2,0-7.99-2.59-7.99-8.23s3.79-8.23,7.99-8.23s7.99,2.59,7.99,8.23
				S301.25,32.38,297.06,32.38 M297.06,19.39c-3.17,0-3.77,2.76-3.77,4.76s0.59,4.76,3.77,4.76s3.77-2.76,3.77-4.76
				S300.24,19.39,297.06,19.39"/>
			<path id="Path_58" class="st1" d="M306.72,16.34h3.94v2.7h0.06c0.85-1.59,1.79-3.11,4.29-3.11c0.27,0,0.53,0.02,0.79,0.06v4.17
				c-0.39-0.05-0.78-0.07-1.18-0.06c-1.82-0.27-3.51,0.98-3.78,2.79c-0.05,0.31-0.05,0.63-0.01,0.94v8.14h-4.11L306.72,16.34z"/>
			<path id="Path_59" class="st1" d="M320.79,14.49h-4.11v-3.82h4.11V14.49z M320.79,31.96h-4.11V16.34h4.11V31.96z"/>
			<path id="Path_60" class="st1" d="M330.63,32.38c-4.2,0-7.99-2.59-7.99-8.23s3.79-8.23,7.99-8.23s7.99,2.59,7.99,8.23
				S334.83,32.38,330.63,32.38 M330.63,19.39c-3.17,0-3.77,2.76-3.77,4.76s0.59,4.76,3.77,4.76s3.77-2.76,3.77-4.76
				S333.81,19.39,330.63,19.39"/>
			<path id="Path_61" class="st1" d="M205.93,63.31h-4.03v-1.97h-0.06c-0.95,1.57-2.69,2.48-4.52,2.38c-4.64,0-6.58-4.11-6.58-8.4
				c0-5.4,3.06-8.05,6.49-8.05c1.84-0.08,3.58,0.86,4.52,2.44h0.06v-7.49h4.11V63.31z M198.35,60.34c2.61,0,3.64-2.17,3.64-4.49
				c0-2.5-0.71-5.02-3.53-5.02c-2.61,0-3.5,2.32-3.5,4.79C194.97,57.46,195.71,60.34,198.35,60.34"/>
			<path id="Path_62" class="st1" d="M212.66,45.83h-4.11v-3.82h4.11V45.83z M212.66,63.31h-4.11V47.68h4.11V63.31z"/>
			<path id="Path_63" class="st1" d="M229.75,47.68v14.81c0,2.7-0.2,7.2-7.9,7.2c-3.23,0-6.64-1.38-6.82-4.7h4.47
				c0.18,0.79,0.5,1.59,2.88,1.59c2.2,0,3.26-1.05,3.26-3.58v-1.88l-0.06-0.06c-0.77,1.57-2.43,2.5-4.17,2.35
				c-3.77,0-6.73-2.61-6.73-8.08c0-5.41,3.06-8.05,6.49-8.05c1.95-0.13,3.77,0.96,4.58,2.73h0.06v-2.32L229.75,47.68z M222.18,59.93
				c2.79,0,3.5-2.38,3.5-4.52c0-2.53-1.23-4.58-3.53-4.58c-1.53,0-3.23,1.12-3.23,4.76C218.91,57.59,219.74,59.94,222.18,59.93"/>
			<path id="Path_64" class="st1" d="M236.42,45.83h-4.11v-3.82h4.11V45.83z M236.42,63.31h-4.11V47.68h4.11V63.31z"/>
			<path id="Path_65" class="st1" d="M243.79,47.68h2.56v2.94h-2.56v8.49c0,0.9,0.03,1.26,1.7,1.26c0.26,0,0.56-0.03,0.85-0.06v3.11
				c-0.65,0.03-1.29,0.06-1.94,0.06h-0.53c-3.55,0-4.2-1.36-4.2-3.38v-9.49h-2.11v-2.94h2.11v-4.23h4.11L243.79,47.68z"/>
			<path id="Path_66" class="st1" d="M260.45,60.26c0,1.85,0.41,2.26,0.9,2.44v0.62h-4.44c-0.21-0.6-0.34-1.22-0.38-1.85
				c-1.25,1.49-3.11,2.32-5.05,2.26c-2.41,0.21-4.54-1.58-4.75-3.99c-0.02-0.19-0.02-0.37-0.01-0.56c-0.12-2.63,1.91-4.87,4.55-4.99
				c0,0,0,0,0.01,0l3.7-0.56c0.65-0.09,1.44-0.35,1.44-1.23c0-1.73-1.65-1.82-2.7-1.82c-1.21-0.17-2.33,0.67-2.5,1.87
				c-0.01,0.1-0.02,0.2-0.02,0.3h-3.97c0.47-4.79,3.79-5.46,6.99-5.46c2.2,0,6.23,0.67,6.23,4.52L260.45,60.26z M256.43,55.7
				c-0.85,0.51-1.8,0.8-2.79,0.85c-1.53,0.26-2.79,0.65-2.79,2.35c-0.05,0.99,0.71,1.83,1.7,1.88c0.07,0,0.14,0,0.21,0
				c1.86,0.15,3.5-1.22,3.67-3.09L256.43,55.7z"/>
			<rect id="Rectangle_17" x="263.07" y="42.22" class="st1" width="4.11" height="21.09"/>
		</g>
	</g>
</g>
</svg>
